# xmcd
#
# Track frame offsets:
#	150
#	21567
#	45130
#	71030
#	98380
#	116217
#	145742
#	169105
#	199480
#	218830
#
# Disc length: 3238 seconds
#
# Revision: 1
# Processed by: cddbd v1.5.2PL0 Copyright (c) Steve Scherf et al.
# Submitted via: audiograbber 1.83.01
#
DISCID=8e0ca40a
DTITLE=Orchestra Marrabenta Star de Mocambique - Marrabenta Piquenique
DYEAR=2000
DGENRE=World
TTITLE0=Wene U N'Ga Yale  
TTITLE1=Matilde  
TTITLE2=Sobremesa  
TTITLE3=A Va Safy Va Lomo  
TTITLE4=Piquenique 
TTITLE5=Magumba  
TTITLE6=Djika  
TTITLE7=Nwahulwana [Electric Version]  
TTITLE8=Djomela 
TTITLE9=Rapsody
EXTD=
EXTT0=
EXTT1=
EXTT2=
EXTT3=
EXTT4=
EXTT5=
EXTT6=
EXTT7=
EXTT8=
EXTT9=
PLAYORDER=
